# ProBuilder 4.2.3
# https://unity3d.com/unity/features/worldbuilding/probuilder
# 8/28/2020 11:19:44 AM

mtllib ./Gun.mtl
o Gun

g Gun
v 0 5 -0.7526715
v -1 5 -0.7526715
v -1 5 -1
v 0 5 -1
v -0.1527216 0.3953516 -0.2298607
v -0.8472784 0.3953516 -0.2298607
v -0.9208335 3.01 -0.714592
v -0.03937353 3.103245 -0.7544363
v -0.8472784 0.1527216 -2.28949
v -0.1527216 0.1527216 -2.28949
v 0 2.597279 -2.3
v -1 2.597279 -2.3
v 0 2.893875 -2.171291
v 0 3.41 -2
v -1 3.41 -2
v -1 2.893875 -2.171291
v 0 3.015083 2
v -1 3.015083 2
v 0 4 2.5
v -1 4 2.5
v -1 4.125 2
v 0 4.125 2
v -1 4.125 2.2
v -0.01841354 4.125 2.2
v -0.1538566 4.902933 -1.968363
v -0.1538566 4.89908 -1.82506
v -0.8686997 4.89908 -1.82506
v -0.8686997 4.902933 -1.968363
v -1 0 -0.844085
v 0 0 -0.844085
v 0 4 -2
v 0 4.188263 -1.551933
v -1 4.188263 -1.551933
v -1 4 -2
v 0 4.156113 -1.546919
v 0 4.227509 -1.494986
v -1 4.227509 -1.494986
v -1 4.156113 -1.546919
v -1 0 -1.900001
v 0 0 -1.3
v 0 0 -1.900001
v 0 4.514214 -1.335921
v -1 4.514214 -1.335921
v -0.000596568 3.028863 -1.395055
v 0 4.25966 -1.5
v -1 4.25966 -1.5
v -0.07692832 4.711942 -1.551953
v -0.07692832 4.581296 -1.708909
v -0.9343498 4.711942 -1.551953
v -0.9343498 4.581296 -1.708909
v 0 2.797592 -1.900001
v -1 2.865513 -1.870293
v -1 4.5625 2
v -1 5 2
v 0 5 2
v 0 4.5625 2
v 0 3.81 -0.9000001
v -0.9943885 3.024004 1.772646
v 0 3.01 1.720421
v 0 5 1.825494
v -1 5 1.825494
v -1 4.33 1.825494
v -1 4.75 -0.6620809
v 0 4.75 1.6
v 0 3.35 1.6
v 0 3.35 -0.5999999
v 0.3381804 4.597279 1.5
v 0.2618196 4.597279 -0.6
v 0 4.75 -0.6
v 0.2618196 3.502721 -0.5999999
v 0.3381804 3.502721 1.6
v -1 4.75 -0.6
v -1.3 3.502721 1.6
v -1.3 3.502721 -0.5999498
v -1 3.35 1.6
v -1 3.35 -0.6
v -1.3 4.597279 -0.5999498
v -1.3 4.597279 1.6
v -1 4.75 1.6
v 0 4.34375 2
v -1 4.34375 2
v -1 4.453125 2
v 0 4.453125 2
v -1.552584 4.05 1.6
v -1.552584 4.05 -0.5999498
v -1.5 4.323639 -0.5999498
v -1.5 4.323639 1.6
v 0 4.4 1.6
v 0 4.05 1.6
v 0.6036015 4.05 1.6
v 0.5381805 4.323639 1.6
v 0.4618196 4.323639 -0.6
v 0.5272406 4.05 -0.6
v 0 4.05 1.6
v 0.0472784 4.05 -0.6
v 0.0472784 4.4 -0.6
v -0.7763608 4.05 -0.665039
v -0.7768083 4.4 -0.6635938
v -0.8240867 4.4 -0.601513
v -0.8236392 4.05 -0.6029581
v -0.7768083 4.75 -0.6620809
v -0.7768083 4.75 -0.6
v -1 4.05 1.6
v -1 4.4 1.6
v -1 4.05 -0.6
v -1 4.4 -0.6
v -1 4.234375 2
v 0 4.234375 2
v -1.5 3.776361 -0.5999498
v -1.5 3.776361 1.6
v 0 3.7 1.6
v 0.5381805 3.776361 1.6
v 0.4618196 3.776361 -0.6
v 0.0472784 3.7 -0.6
v -0.7763608 3.35 -0.665039
v -0.7763608 3.7 -0.665039
v -0.8236392 3.7 -0.6029581
v -0.8236392 3.35 -0.6029581
v -1 3.35 1.825494
v -1 3.7 1.6
v -1 3.7 -0.5999999
v -1 4.0625 2.4
v -0.009206772 4.0625 2.4
v 0 3.570042 2
v -0.9971942 3.187002 1.79907
v -1 3.245731 -0.8000002
v -1 3.35 -0.6620809
v -1 3.7 -0.6620809
v -1 4.05 -0.6620809
v -1 4.4 -0.6620809

vt 0 1.507651
vt 1 1.507651
vt 1 1.28518
vt 0 1.28518
vt -0.1527216 0.1875893
vt -0.8472784 0.1875893
vt -0.9891542 3.13125
vt 0.5743058 3.145066
vt 0.8472784 -0.09901612
vt 0.1527216 -0.09901612
vt 0.1527216 2.327843
vt 0.8472784 2.327843
vt 0 2.633286
vt 0 3.558812
vt 1 3.348529
vt 1 2.633286
vt 0 3.593822
vt -1 3.593822
vt 0 4.698386
vt -1 4.698386
vt 1 2
vt 0 2
vt 1 2.2
vt 0.01841354 2.2
vt 0.1538566 -2.099424
vt 0.1538566 -1.956069
vt 0.8686997 -1.956069
vt 0.8686997 -2.099424
vt -1 -0.7097667
vt 0 -0.7097667
vt -0.8472784 0.02069502
vt -0.1527216 0.02069502
vt -0.4200146 0.3832698
vt -0.9085928 2.998237
vt -1.052911 -0.01213004
vt 0.1869099 0.3964519
vt 0.7233889 3.104385
vt 0.8198323 0.001094414
vt 0 -0.05124748
vt 0 0.4340449
vt 1 0.4340449
vt 1 -0.05124748
vt 0 2.451071
vt 0 2.539357
vt 1 2.539357
vt 1 2.451071
vt -1 -1.79546
vt 0.6470886 -0.7205237
vt 0 -2.069792
vt 0 0.7707652
vt 1 0.7707652
vt -1 -1.900001
vt -1 -0.844085
vt 0 -0.844085
vt 0 -1.3
vt 0.844085 -6.848495E-09
vt 0.7544306 3.103242
vt 1.395055 3.028863
vt 1.3 -1.054757E-08
vt -1 4.377371
vt 0 4.377371
vt -1 4.344832
vt 0 4.344832
vt -1.551933 4.188263
vt -1.5 4.25966
vt -1.546919 4.156113
vt -1.494986 4.227509
vt 1.5 4.25966
vt 1.551933 4.188263
vt 1.494986 4.227509
vt 1.546919 4.156113
vt 0 4.439913
vt 1 4.439913
vt 0 4.407374
vt 1 4.407374
vt 1.495067 4.130653
vt 1.331528 4.381981
vt 1.553083 4.587853
vt 1.709523 4.457578
vt 1.831525 4.782382
vt 1.974358 4.78361
vt 0 -3.852993
vt 1 -3.852993
vt 0.9343498 -4.14513
vt 0.07692832 -4.14513
vt 0.8686997 -4.475385
vt 0.1538566 -4.475385
vt -1.178816 4.326619
vt -1.341202 4.071145
vt -1.557363 4.394622
vt -1.402027 4.527071
vt -1.823548 4.717176
vt -1.681723 4.715975
vt 1 4.328978
vt 0 4.328978
vt 0.07692832 4.711999
vt 0.9343498 4.711999
vt 0.1538566 5.124693
vt 0.8686997 5.124693
vt 2.17171 0.1963135
vt 2.122594 2.645166
vt 1.753447 0.04332347
vt 1.753447 2.836008
vt 0 1.467006
vt 1 1.467006
vt 0 1.790326
vt 1 1.790326
vt -2.337127 2.648797
vt -2.320688 0.1995071
vt -1.907744 2.917551
vt -1.937429 0.05750407
vt -0.8472784 -2.18724
vt -0.1527216 -2.18724
vt -1 -1.768879
vt 0 -1.768879
vt 2.3 2.597279
vt 1.900001 2.797592
vt 2.171291 2.893875
vt -2.3 2.597279
vt -2.171291 2.893875
vt -1.870293 2.865513
vt -1 4.5625
vt -1 5
vt 0 5
vt 0 4.5625
vt 0 3.41
vt 0 4
vt 1 4
vt 1 3.41
vt 0.9000001 3.81
vt 0.7526715 5
vt 1 5
vt 1.335921 4.514214
vt -0.9443661 2.302683
vt -0.6588627 2.768381
vt -1 2
vt 1 -0.7526715
vt 0 -0.7526715
vt 0 1.825494
vt 1 1.825494
vt 1.825265 4.341229
vt -0.6623102 4.761195
vt -0.7529008 5.011178
vt 1.825265 5.011185
vt -1.999999 4.562391
vt -1.999999 4.999882
vt -1.825493 4.999883
vt -1.599999 4.74989
vt 0.7526709 4.999903
vt 0.8999994 3.809928
vt 0.8798237 4.318068
vt 0.0472784 -0.7526715
vt 1.566598 1.564135
vt 1.636316 -0.5360962
vt 1.937661 1.664146
vt 1.937661 -0.5356122
vt 1.991019 -0.6505069
vt 2.056978 1.549829
vt 1.687913 -0.6505069
vt 1.687913 1.549157
vt 0.613968 4.038719
vt 1.047278 -0.7526715
vt -2.747598 1.6
vt -2.747598 -0.5999498
vt -2.410962 1.6
vt -2.410962 -0.6
vt -0.927123 -0.5999498
vt -0.927123 1.6
vt -1.263759 -0.6
vt -1.263759 1.6
vt 0 4.34375
vt -1 4.34375
vt -1 4.453125
vt 0 4.453125
vt 1.672772 4.05
vt -0.5999499 4.05
vt -0.5999499 4.323639
vt 1.672772 4.323639
vt -0.5999499 4.597279
vt 1.672772 4.597279
vt -1.599999 4.399897
vt -1.999999 4.453018
vt -1.599999 4.049904
vt -1.999999 4.343645
vt -1.672772 4.05
vt -1.672772 4.323639
vt 0.5999499 4.323639
vt 0.5999499 4.05
vt -1.672772 4.597279
vt 0.5999499 4.597279
vt 0.0472784 4.05
vt 0 4.05
vt 0 4.4
vt -0.0472784 4.05
vt -0.0472784 4.4
vt -0.0472784 4.75
vt 0.317706 4.43237
vt 0.5163246 4.150163
vt -0.0218059 4.226875
vt -0.0218059 4.575272
vt 0.5817395 3.877692
vt -0.0218059 3.878479
vt 1.390994E-08 4.75
vt -0.4618196 4.323639
vt -0.2618196 4.597279
vt -0.5272406 4.05
vt 1 4.05
vt 1 4.4
vt 1.047278 4.4
vt 1.047278 4.05
vt 1 4.75
vt 1.047278 4.75
vt -1.047278 4.05
vt -1.047278 4.4
vt -1.047278 4.75
vt 0.9999388 4.05
vt 0.9999388 4.4
vt 1.499939 4.323639
vt 1.552522 4.05
vt 0.9999388 4.75
vt 1.299939 4.597279
vt -0.9999995 4.05
vt -1.552583 4.05
vt -1.5 4.323639
vt -0.9999995 4.4
vt -1.299999 4.597279
vt -0.9999995 4.75
vt 0 4.125
vt -1 4.125
vt -1 4.234375
vt 0 4.234375
vt 1.672772 3.502722
vt -0.5999499 3.502722
vt -0.5999499 3.776361
vt 1.672772 3.776361
vt -1.999999 4.1249
vt -1.999999 4.234272
vt -1.599999 3.699911
vt -1.599999 3.349919
vt -1.672772 3.502722
vt -1.672772 3.776361
vt 0.5999499 3.776361
vt 0.5999499 3.502722
vt 0.0472784 3.7
vt -0.0472784 3.35
vt -0.0472784 3.7
vt 0.3163431 3.333267
vt -0.0218059 3.181686
vt -0.0218059 3.530082
vt 0.5163246 3.605392
vt -0.2618196 3.502721
vt -0.4618196 3.776361
vt -0.04727839 3.7
vt 1.390994E-08 3.35
vt 1 3.35
vt 1 3.7
vt 1.047278 3.7
vt 1.047278 3.35
vt -1 3.35
vt -1.047278 3.35
vt -1.047278 3.7
vt 1.499939 3.776361
vt 0.9999388 3.7
vt 1.299939 3.502721
vt 0.9999388 3.35
vt -0.9999995 3.35
vt -1.299999 3.502721
vt -1.5 3.776361
vt -0.9999995 3.7
vt 0 0.6014585
vt 1 0.6014585
vt 1 0.4844964
vt 0.009206772 0.4844964
vt 1 0.2766686
vt 0.01841354 0.2766686
vt -1.999995 3.567627
vt -1.999995 3.01302
vt -2.499994 3.997274
vt -2.400014 4.06007
vt 1.825265 3.361295
vt 1.798841 3.198275
vt -0.8002295 3.257025
vt -0.6623102 3.361288
vt 1.772418 3.035255
vt -0.7148032 3.020399
vt 0.7544823 3.102933
vt -1.72042 3.009925
vt -1.999999 3.569953
vt -1.999999 3.015006
vt -0.9911559 3.7
vt -0.9911559 4.05
vt -0.7674971 3.7
vt -0.7674971 4.05
vt -0.9954891 4.4
vt -0.9954891 4.75
vt -0.7722923 4.4
vt -0.7723026 4.75
vt 0.9897969 4.05
vt 0.9897969 3.7
vt 0.8134113 4.05
vt 0.8134113 3.7
vt 0.9897965 3.7
vt 0.9897965 3.35
vt 0.8134109 3.7
vt 0.8134109 3.35
vt -0.9911559 4.4
vt -0.7679637 4.4
vt -0.9911559 3.35
vt -0.7674971 3.35
vt 0.994803 4.4
vt 0.994803 4.05
vt 0.8188831 4.4
vt 0.8184232 4.05
vt -1 -0.6620809
vt -1 -0.6
vt -0.7768083 -0.6620809
vt -0.7768083 -0.6
vt 0.7768083 4.75
vt 0.8240867 4.4
vt 1 -0.6
vt 1 -0.6620809
vt 0.8236392 -0.6029581
vt 0.7763608 -0.665039
vt -0.8548962 0.03662113
vt -1.91075 0.03619724
vt -1.881044 2.899764
vt -0.7245511 3.04169
vt -2.182024 2.927986
vt -2.010743 3.443827
vt -0.8108141 3.280152
vt -2.010743 4.033424
vt -0.6729029 3.384405
vt -1.562702 4.221738
vt -0.6729029 3.734166
vt -1.510773 4.293107
vt -0.6729029 4.083927
vt -1.346703 4.547553
vt -1.010802 5.033142
vt -0.6729029 4.433688
vt -0.7634881 5.033241
vt -0.6729029 4.783449
vt 2.403242 4.062652
vt 2.503242 4.000152
vt 2.003244 3.015235
vt 2.203243 4.125152
vt 2.003244 4.125152
vt 1.828739 4.330152
vt 1.828739 5.000152
vt 2.003244 5.000152
vt 2.003244 4.562652
vt 2.003244 4.453277
vt 2.003244 4.343902
vt 2.003244 4.234527
vt 1.802307 3.187153
vt 1.828739 3.350152
vt 1.775874 3.024155
vt 1.900001 -1.541568E-08
vt 2 3.41
vt -2.200035 4.122874
vt -1.999995 4.122234
vt 2 4

vn 0 1 0
vn 0.01218217 0.1857151 0.9824463
vn 0 0.1822846 0.9832458
vn 0.02436435 0.1891457 0.9816467
vn 0 -0.004299587 -0.9999908
vn 0 0.3149847 -0.9490967
vn 0 -0.4526674 0.8916794
vn 0 0.9996388 0.02687617
vn 0 -0.8408713 0.5412352
vn -0.9726403 0.0156097 0.2317913
vn 0.971253 0.005447984 0.2379871
vn 0 0.9219269 -0.3873639
vn 0 0.5882315 -0.8086926
vn 0 -1 0
vn 0 0.5687599 -0.8225036
vn 0.9990945 0.005576556 0.02957438
vn 0.998189 0.01095615 0.05914876
vn 1 0.0001969611 0
vn 0 0.15408 0.9880584
vn -1 0 0
vn 0 -0.15408 -0.9880584
vn 0.9766669 0.1163526 -0.1805101
vn 0.971638 0.1566534 -0.1722248
vn 0.966609 0.1969543 -0.1639394
vn 0.9720567 0.1804223 -0.1501786
vn 0.971714 0.2089516 -0.07189687
vn 0.9713713 0.2374808 0.006384881
vn 0 0.7376666 0.6751651
vn 0 0.8249192 0.5652506
vn -0.9790973 0.1347611 -0.1480953
vn -0.9828449 0.09992271 -0.1550207
vn -0.9753497 0.1695995 -0.14117
vn -0.9791615 0.179687 -0.06182042
vn -0.9789061 0.2042368 0.005491085
vn -0.9794168 0.1551372 -0.1291319
vn 0 -0.5447045 -0.8386281
vn 0 -0.6278554 -0.77833
vn 0.9212478 -0.05920713 -0.3844439
vn 0.9606239 -0.02960356 -0.1922219
vn 0 0.3980873 -0.9173476
vn -0.9973134 -0.06213951 0.03878907
vn -0.9643986 -0.02918413 -0.1624871
vn -0.9314838 0.003771247 -0.3637632
vn 0 -0.9309887 -0.3650479
vn 0 0 1
vn 0 0 -1
vn 0.1033693 -0.9938746 -0.0390905
vn 0.044781 -0.9968828 -0.01693455
vn -0.01380726 -0.999891 0.005221404
vn -0.006562398 -0.9994899 -0.01051466
vn 0 -0.9992312 -0.0392068
vn -0.0131248 -0.9997486 0.01817748
vn 0.4078837 0.9129134 -0.01483159
vn 0.4558691 0.888351 -0.007415794
vn 0.5038546 0.8637885 0
vn 0.5037776 -0.8636565 -0.01748585
vn 0.4576763 -0.8875161 -0.008742926
vn 0.411575 -0.9113759 0
vn -0.4536693 -0.8911701 0
vn -0.4536693 0.8911701 0
vn -0.9820327 0.1887112 0
vn -0.8073449 0.59008 0
vn 0.9720368 0.2323922 -0.03373888
vn 0.8095655 0.5863074 -0.02877072
vn 0.8121032 0.5827663 -0.02952993
vn 0.807028 0.5898485 -0.02801151
vn 0 0 0
vn 0.9878086 0 -0.1556734
vn 0.9138649 0.123446 -0.3867973
vn 0.1685276 0.1885051 0.9418084
vn 0.05349277 0.3770102 0.9246631
vn 0.2835625 0 0.9589537
vn -0.7955624 0.001484469 -0.6058698
vn -0.895393 0.0547118 -0.3011162
vn -0.7907861 0.1094236 -0.6022325
vn -0.8073449 -0.59008 0
vn -0.9820327 -0.1887109 0
vn 0.807028 -0.5898485 -0.02801151
vn 0.9720369 -0.2323918 -0.03373888
vn 0.9707606 -0.1311316 -0.2010683
vn -0.7955633 0 -0.6058705
vn 0 0.8479981 0.5299993
vn 0 0.95448 0.2982749
vn 0.9983366 0.03089786 -0.02656958
vn 0.9966732 0.06179571 -0.05313916
vn -0.9998519 -0.01721098 0
vn -0.9999252 -0.009298727 0.0005240986
vn -0.9999985 -0.001386479 0.001048197
vn -0.9998497 -0.01732246 0.0006879437
vn -0.9723023 -0.1720297 -0.0127058
vn -0.9447548 -0.326737 -0.02609955
vn 0.9982713 -0.05780457 -0.01063604
vn 0.9990625 -0.03175736 -0.01337913
vn 0.9998537 -0.005710153 -0.01612223
vn 0.01322604 0 0.9999126
vn 0.006778524 0 0.9999771
vn 0.003389262 -0.00216133 0.9999838
vn 0 -0.00432266 0.9999906
vn -0.01677075 -3.405497E-07 -0.9998593
vn 0.01000225 -0.002060137 0.9999405
vn 0.006778466 -0.004120274 0.9999685
vn -0.008600197 0 -0.999963
vn -0.0126854 0.002053506 -0.999907
vn -0.01677061 0.004107012 -0.9998509
vn -0.004300034 0.002742091 -0.999974
vn -0.008600067 0.005484183 -0.999948
vn -0.9987919 0.01171188 0.03270345
vn -0.9975837 0.02342376 0.0654069
vn -0.9976702 0.01580934 0.06636479
vn -0.9988351 0.007904669 0.03318239
vn -0.9709437 -0.1664125 -0.02278035
vn -0.9418873 -0.332825 -0.04556069
vn -0.9876698 -0.01973126 0.08762871
vn -0.9630094 -0.05919379 0.2628861
vn -0.9815047 -0.02959689 0.1314431
vn -0.9999025 0 -0.01396256
vn -0.9997495 -0.006561746 -0.01957475
vn -0.9995966 -0.01312349 -0.02518695
vn 0.9999997 0.000115361 0.000537888
vn 0.9999994 0.000230722 0.001075776
vn 0.9999995 -0.0009924313 0.000360884
vn 0.9984903 -0.02154916 0.03279876
vn 0.9969811 -0.04210589 0.06523664
vn 0.9984892 0.04466469 -0.03200659
vn 0.9957885 0 0.09167995

usemtl Gun
f 6/33/10 7/34/10 29/35/10
f 5/36/11 30/38/11 8/37/11
f 39/47/14 41/49/14 40/48/14
f 13/118/18 51/117/18 11/116/18
f 52/121/20 16/120/20 12/119/20
f 1/131/18 57/130/18 4/132/18
f 57/130/18 45/68/18 42/133/18
f 45/68/18 57/130/18 32/69/18
f 4/132/18 57/130/18 42/133/18
f 66/152/20 65/139/20 57/151/20
f 72/162/18 62/161/18 63/137/18
f 88/193/67 89/192/67 94/191/67
f 96/195/68 95/194/68 57/151/68
f 69/196/69 96/195/69 57/151/69
f 89/192/67 111/244/67 94/191/67
f 114/246/80 66/245/80 57/151/80
f 95/194/68 114/246/68 57/151/68
f 17/289/18 59/287/18 124/288/18
f 79/215/20 104/214/20 62/161/20
f 104/214/20 103/213/20 62/161/20
f 103/213/20 120/261/20 62/161/20
f 120/261/20 75/260/20 119/259/20
f 120/261/20 119/259/20 62/161/20
f 18/344/20 20/343/20 122/342/20
f 18/344/20 122/342/20 23/345/20
f 18/344/20 23/345/20 21/346/20
f 54/349/20 61/348/20 62/347/20
f 54/349/20 62/347/20 53/350/20
f 62/347/20 82/351/20 53/350/20
f 62/347/20 81/352/20 82/351/20
f 81/352/20 62/347/20 107/353/20
f 62/347/20 21/346/113 107/353/20
f 21/346/113 62/347/20 119/355/115
f 21/346/113 119/355/115 125/354/114
f 124/276/124 24/359/124 123/279/124
f 124/276/125 22/360/125 24/359/125
f 57/130/18 14/358/18 32/69/18
f 14/358/18 31/361/18 32/69/18
f 1/1/1 4/4/1 3/3/1
f 3/3/1 2/2/1 1/1/1
f 7/7/2 6/6/3 5/5/2
f 5/5/2 8/8/4 7/7/2
f 12/12/5 11/11/5 10/10/5
f 10/10/5 9/9/5 12/12/5
f 15/15/6 14/14/6 13/13/6
f 13/13/6 16/16/6 15/15/6
f 20/20/7 18/18/7 17/17/7
f 17/17/7 19/19/7 20/20/7
f 24/24/1 22/22/1 21/21/1
f 21/21/1 23/23/1 24/24/1
f 6/31/9 29/29/9 30/30/9
f 30/30/9 5/32/9 6/31/9
f 32/40/12 31/39/12 34/42/12
f 34/42/12 33/41/12 32/40/12
f 36/44/13 35/43/13 38/46/13
f 38/46/13 37/45/13 36/44/13
f 3/3/15 4/4/15 42/50/15
f 42/50/15 43/51/15 3/3/15
f 39/52/14 40/55/14 30/54/14
f 30/54/14 29/53/14 39/52/14
f 30/56/16 40/59/18 44/58/16
f 44/58/16 8/57/17 30/56/16
f 35/63/19 32/61/19 33/60/19
f 33/60/19 38/62/19 35/63/19
f 36/67/20 45/65/20 32/64/20
f 32/64/20 35/66/20 36/67/20
f 38/71/18 33/69/18 46/68/18
f 46/68/18 37/70/18 38/71/18
f 41/102/39 10/100/38 11/101/39
f 11/101/39 51/103/18 41/102/39
f 13/106/40 11/104/40 12/105/40
f 12/105/40 16/107/40 13/106/40
f 52/110/42 12/108/41 9/109/42
f 9/109/42 39/111/43 52/110/42
f 39/114/44 9/112/44 10/113/44
f 10/113/44 41/115/44 39/114/44
f 54/123/45 53/122/45 56/125/45
f 56/125/45 55/124/45 54/123/45
f 34/128/46 31/127/46 14/126/46
f 14/126/46 15/129/46 34/128/46
f 59/135/48 58/134/49 7/7/48
f 7/7/48 8/8/47 59/135/48
f 17/22/50 18/136/51 58/134/50
f 58/134/50 59/135/52 17/22/50
f 60/139/1 1/138/1 2/137/1
f 2/137/1 61/140/1 60/139/1
f 55/22/1 60/139/1 61/140/1
f 61/140/1 54/21/1 55/22/1
f 2/143/20 63/142/20 62/141/20
f 62/141/20 61/144/20 2/143/20
f 60/147/18 55/146/18 56/145/18
f 56/145/18 64/148/18 60/147/18
f 1/149/18 60/147/18 64/148/18
f 64/148/18 57/150/18 1/149/18
f 82/173/45 81/172/45 80/171/45
f 80/171/45 83/174/45 82/173/45
f 53/122/45 82/173/45 83/174/45
f 83/174/45 56/125/45 53/122/45
f 83/182/18 88/181/18 64/148/18
f 64/148/18 56/145/18 83/182/18
f 88/181/18 83/182/18 80/184/18
f 80/184/18 89/183/18 88/181/18
f 64/200/72 88/199/70 91/198/71
f 91/198/71 67/197/70 64/200/72
f 88/199/45 94/202/45 90/201/45
f 90/201/45 91/198/45 88/199/45
f 107/230/45 21/229/45 22/228/45
f 22/228/45 108/231/45 107/230/45
f 81/172/45 107/230/45 108/231/45
f 108/231/45 80/171/45 81/172/45
f 111/238/18 108/237/18 22/236/18
f 22/236/18 65/239/18 111/238/18
f 89/183/18 80/184/18 108/237/18
f 108/237/18 111/238/18 89/183/18
f 111/249/45 65/248/45 71/247/45
f 71/247/45 112/250/45 111/249/45
f 94/202/45 111/249/45 112/250/45
f 112/250/45 90/201/45 94/202/45
f 20/271/82 19/270/82 123/273/82
f 123/273/82 122/272/82 20/271/82
f 122/272/83 123/273/83 24/275/83
f 24/275/83 23/274/83 122/272/83
f 124/276/84 123/279/85 19/278/84
f 19/278/84 17/277/18 124/276/84
f 126/282/88 125/281/87 119/280/86
f 119/280/86 127/283/87 126/282/88
f 7/285/91 58/284/90 125/281/89
f 125/281/89 126/282/90 7/285/91
f 59/287/94 8/286/93 57/150/92
f 57/150/92 65/239/93 59/287/94
f 65/239/18 22/236/18 124/288/18
f 124/288/18 59/287/18 65/239/18
f 102/317/14 72/315/14 63/314/14
f 63/314/14 101/316/14 102/317/14
f 29/324/107 7/327/108 52/326/107
f 52/326/107 39/325/20 29/324/107
f 16/328/20 52/326/110 7/327/109
f 7/327/109 15/329/110 16/328/20
f 34/331/20 15/329/111 7/327/112
f 7/327/112 126/330/111 34/331/20
f 34/331/20 126/330/20 127/332/20
f 127/332/20 33/333/20 34/331/20
f 46/335/20 33/333/20 127/332/20
f 127/332/20 128/334/20 46/335/20
f 43/337/20 46/335/20 128/334/20
f 128/334/20 129/336/20 43/337/20
f 3/338/20 43/337/20 129/336/20
f 129/336/20 130/339/20 3/338/20
f 2/340/20 3/338/20 130/339/20
f 130/339/20 63/341/20 2/340/20
f 58/356/118 18/344/117 21/346/116
f 21/346/116 125/354/117 58/356/118
f 51/117/119 44/58/120 40/59/119
f 40/59/119 41/357/18 51/117/119
f 8/57/123 44/58/122 14/358/121
f 14/358/121 57/130/122 8/57/123
f 51/117/119 13/118/18 14/358/119
f 14/358/119 44/58/120 51/117/119

usemtl Metal
f 28/28/8 27/27/8 26/26/8 25/25/8
f 42/77/23 45/76/22 48/79/23 47/78/24
f 47/78/25 48/79/26 25/81/27 26/80/26
f 42/82/28 47/85/28 49/84/28 43/83/28
f 47/85/29 26/87/29 27/86/29 49/84/29
f 49/91/32 50/90/30 46/89/31 43/88/30
f 28/92/34 50/90/33 49/91/35 27/93/33
f 45/95/36 46/94/36 50/97/36 48/96/36
f 48/96/37 50/97/37 28/99/37 25/98/37
f 69/156/55 64/155/54 67/153/53 68/154/54
f 65/160/58 66/159/57 70/157/56 71/158/57
f 76/166/59 75/165/59 73/163/59 74/164/59
f 79/170/60 72/169/60 77/167/60 78/168/60
f 87/178/61 86/177/61 85/176/61 84/175/61
f 78/180/62 77/179/62 86/177/62 87/178/62
f 93/188/63 92/187/63 91/186/63 90/185/63
f 92/187/66 68/190/64 67/189/65 91/186/64
f 68/205/46 92/204/46 96/195/46 69/203/46
f 92/204/46 93/206/46 95/194/46 96/195/46
f 106/217/46 105/216/46 85/219/46 86/218/46
f 72/220/46 106/217/46 86/218/46 77/221/46
f 87/224/45 84/223/45 103/222/45 104/225/45
f 78/226/45 87/224/45 104/225/45 79/227/45
f 110/235/76 109/234/76 74/233/76 73/232/76
f 84/175/77 85/176/77 109/234/77 110/235/77
f 70/243/78 113/242/78 112/241/78 71/240/78
f 113/242/79 93/188/79 90/185/79 112/241/79
f 66/254/46 114/253/46 113/252/46 70/251/46
f 114/253/46 95/194/46 93/206/46 113/252/46
f 105/216/46 121/263/46 109/262/46 85/219/46
f 121/263/46 76/265/46 74/264/46 109/262/46
f 110/268/45 73/267/45 75/266/45 120/269/45
f 84/223/45 110/268/45 120/269/45 103/222/45

usemtl Void
f 36/74/21 37/75/21 46/73/21 45/72/21
f 100/210/73 99/209/73 98/208/73 97/207/73
f 99/209/75 102/212/74 101/211/20 98/208/74
f 118/258/81 117/257/81 116/256/81 115/255/81
f 117/257/81 100/210/81 97/207/81 116/256/81
f 116/292/95 97/293/95 129/291/95 128/290/95
f 98/296/97 101/297/98 63/295/97 130/294/96
f 100/300/99 117/301/99 121/299/99 105/298/99
f 117/304/99 118/305/99 76/303/99 121/302/99
f 97/293/100 98/307/101 130/306/100 129/291/95
f 115/309/95 116/292/95 128/290/95 127/308/95
f 99/312/103 100/313/104 105/311/103 106/310/102
f 102/318/105 99/319/106 106/208/105 72/211/46
f 118/322/1 115/323/1 127/321/1 76/320/1

